<svg id="Layer_1" data-name="Layer 1" xmlns="http://www.w3.org/2000/svg" viewBox="0 0 1919.72 1117.82"><defs><style>.cls-1{opacity:0.75;}.cls-2{opacity:0.5;}.cls-3{fill:#6acff6;}.cls-4{fill:#97dcfd;}.cls-5{fill:#c9ebfc;}.cls-6{fill:#fff;}.cls-7{fill:#f1fafe;}.cls-8{fill:#a6acd7;}.cls-9{fill:#006e5a;}.cls-10{fill:#40bda8;}.cls-11{fill:#ffb531;}.cls-12{fill:#f2a731;}.cls-13{fill:#ef9030;}.cls-14{fill:#fff7df;}.cls-15{fill:#f7eada;}.cls-16{fill:#c68452;}.cls-17{fill:#e32f20;}.cls-18{fill:#b3251a;}.cls-19{fill:#8cd6f2;}.cls-20{fill:#1a181b;}.cls-21{fill:#dadcf0;}.cls-22{fill:#ca6014;}.cls-23{fill:#ee812c;}.cls-24{fill:#ffce31;}.cls-25{fill:#fe260d;}.cls-26{fill:#662b14;}.cls-27{fill:#90b611;}.cls-28{fill:#97c719;}</style></defs><g class="cls-1"><g class="cls-2"><rect class="cls-3" width="1919.72" height="1080"/><path class="cls-4" d="M1926.69,486v599H7V383.2a199.86,199.86,0,0,1,59.28-33.39c73.69-26.14,158.85-8.6,232.18,18.27s143.26,63.05,221.85,75.3C664.05,465.76,805.09,405,938.75,355s293.21-89.79,421-29.85c107.25,50.31,168.42,162,286.45,190.34C1738,537.58,1831.78,501.57,1926.69,486Z" transform="translate(-6.97 -5.03)"/><path class="cls-5" d="M1926.69,711.41V1085H7V734.68a181.32,181.32,0,0,1,58.1-27.39c73.31-19.55,153.07-3.22,225.2,19.16S433.43,777.54,510,783.34c136,10.28,262.74-52.47,381.23-109.7s252.94-112.93,386.09-87.47c164.64,31.49,285,180.66,453.75,176.12C1799.69,760.47,1862.14,732.58,1926.69,711.41Z" transform="translate(-6.97 -5.03)"/></g><path class="cls-6" d="M370.94,629.1a85.94,85.94,0,1,0-147.06,0Z" transform="translate(-6.97 -5.03)"/><path class="cls-6" d="M165.72,629.1a67.62,67.62,0,0,0-107,0Z" transform="translate(-6.97 -5.03)"/><path class="cls-6" d="M293.64,629.1a75,75,0,0,0-149.74,0Z" transform="translate(-6.97 -5.03)"/><path class="cls-6" d="M1739.93,436a61.52,61.52,0,1,0-105.27,0Z" transform="translate(-6.97 -5.03)"/><path class="cls-6" d="M1816.89,436c0-.81.07-1.63.07-2.46a48.44,48.44,0,0,0-96.87,0q0,1.24.06,2.46Z" transform="translate(-6.97 -5.03)"/><path class="cls-6" d="M1684.6,436a53.67,53.67,0,0,0-107.19,0Z" transform="translate(-6.97 -5.03)"/><path class="cls-6" d="M1430.29,484.16a26.46,26.46,0,1,0-45.27,0Z" transform="translate(-6.97 -5.03)"/><path class="cls-6" d="M1463.39,484.16V483.1a20.83,20.83,0,0,0-41.65-.91c0,.3,0,.61,0,.91v1.06Z" transform="translate(-6.97 -5.03)"/><path class="cls-6" d="M1406.49,484.16a23.08,23.08,0,0,0-46.09,0Z" transform="translate(-6.97 -5.03)"/><rect class="cls-7" x="946.55" y="459.05" width="4.16" height="69.71"/><path class="cls-6" d="M451.67,629.1c.07-1.66.11-3.33.11-5,.64-54.28-41.34-98.83-93.77-99.49s-95.45,42.81-96.09,97.1v2.39c0,1.67,0,3.34.12,5Z" transform="translate(-6.97 -5.03)"/><path class="cls-6" d="M1463.22,451.46c11.2-39.65-10.76-81.19-49.06-92.79s-78.41,11.15-89.61,50.8a77.38,77.38,0,0,0,0,42Z" transform="translate(-6.97 -5.03)"/><path class="cls-6" d="M1501.61,451.46c7-25-6.94-51.2-31.11-58.44s-49.44,7.18-56.44,32.21a48.74,48.74,0,0,0-1.79,13.16,48.12,48.12,0,0,0,1.82,13.07Z" transform="translate(-6.97 -5.03)"/><path class="cls-6" d="M1553.22,451.46c-8.79-18.5-30.4-26.12-48.27-17a36.69,36.69,0,0,0-16.43,17Z" transform="translate(-6.97 -5.03)"/><path class="cls-6" d="M1341.88,451.46C1341,435.34,1327.59,423,1312,424c-14.28.88-25.68,12.68-26.52,27.47Z" transform="translate(-6.97 -5.03)"/><path class="cls-8" d="M1018.64,430h0a3.68,3.68,0,0,1,0-5l9-9.3a3.38,3.38,0,0,1,4.87,0h0a3.68,3.68,0,0,1,0,5l-9,9.3a3.36,3.36,0,0,1-4.86,0Z" transform="translate(-6.97 -5.03)"/><path class="cls-8" d="M1018.64,415.65h0a3.38,3.38,0,0,1,4.87,0l9,9.3a3.68,3.68,0,0,1,0,5h0a3.36,3.36,0,0,1-4.86,0h0l-9-9.3A3.68,3.68,0,0,1,1018.64,415.65Z" transform="translate(-6.97 -5.03)"/><path class="cls-8" d="M993.84,544.07h0a3.65,3.65,0,0,1,0-5h0l9-9.3a3.37,3.37,0,0,1,4.86,0h0a3.64,3.64,0,0,1,0,5h0l-9,9.3A3.36,3.36,0,0,1,993.84,544.07Z" transform="translate(-6.97 -5.03)"/><path class="cls-8" d="M993.84,529.73h0a3.36,3.36,0,0,1,4.85,0l9,9.3a3.64,3.64,0,0,1,0,5h0a3.37,3.37,0,0,1-4.86,0l-9-9.3A3.75,3.75,0,0,1,993.84,529.73Z" transform="translate(-6.97 -5.03)"/><path class="cls-8" d="M1034.5,628.48h0a3.68,3.68,0,0,1,0-5l9-9.28a3.35,3.35,0,0,1,4.86,0h0a3.67,3.67,0,0,1,0,5l-9,9.29a3.36,3.36,0,0,1-4.87,0Z" transform="translate(-6.97 -5.03)"/><path class="cls-8" d="M1034.5,614.16h0a3.35,3.35,0,0,1,4.86,0h0l9,9.28a3.66,3.66,0,0,1,0,5h0a3.35,3.35,0,0,1-4.86,0h0l-9-9.29A3.67,3.67,0,0,1,1034.5,614.16Z" transform="translate(-6.97 -5.03)"/><path class="cls-9" d="M1359.42,605.78V452.84a3.41,3.41,0,0,0-3.36-3.47h0a7.14,7.14,0,0,1-7-7.27v-3.54a7.14,7.14,0,0,1,7-7.26h16.69a5.82,5.82,0,0,1,5.72,5.92V449L1394,572.32Z" transform="translate(-6.97 -5.03)"/><polygon class="cls-9" points="1364.55 439.85 1349.5 439.85 1345.99 408.4 1368.07 408.4 1364.55 439.85"/><path class="cls-9" d="M1372.52,389.36h-17a14,14,0,0,0-13.8,14.28h0a14.05,14.05,0,0,0,13.8,14.28h17a14,14,0,0,0,13.79-14.28h0A14,14,0,0,0,1372.52,389.36Z" transform="translate(-6.97 -5.03)"/><path class="cls-9" d="M1369.86,343.32l4.46,5.64a34.36,34.36,0,0,1,7.31,21.24h0a17.44,17.44,0,0,1-10.55,16.19l-7,2.91-5.89-2a21,21,0,0,1-14-20h0a8.47,8.47,0,0,1,6.52-8.35h0a21.83,21.83,0,0,0,16-15.08h0a1.84,1.84,0,0,1,2.36-1.17A1.91,1.91,0,0,1,1369.86,343.32Z" transform="translate(-6.97 -5.03)"/><polygon class="cls-9" points="1468.33 626.31 1404.95 626.31 1417.41 553.13 1455.87 553.13 1468.33 626.31"/><path class="cls-10" d="M1464.08,558.16v27.6c0,9.36-7.36,17-16.4,17h-8.08c-9.08,0-16.43-7.63-16.43-17v-27.6c0-11.7,9.15-21.18,20.45-21.18h0c11.3,0,20.46,9.48,20.46,21.18Z" transform="translate(-6.97 -5.03)"/><path class="cls-9" d="M1411.75,595.45l-13.06,15.41a6.15,6.15,0,0,1-8.89.63,6.26,6.26,0,0,1-.85-.93,6.8,6.8,0,0,1,0-7.95l5.77-7.93a21.25,21.25,0,0,0,3.9-9.38l3.24-20.34,8.69,26.77Z" transform="translate(-6.97 -5.03)"/><path class="cls-9" d="M1437.18,546.61l3.43-31a3,3,0,0,1,6,0l3.43,31Z" transform="translate(-6.97 -5.03)"/><path class="cls-9" d="M1425.48,554.12,1412,526.22a3.2,3.2,0,0,1,1.34-4.22,3,3,0,0,1,3.71.82l19.15,24Z" transform="translate(-6.97 -5.03)"/><path class="cls-9" d="M1424.3,569.1l-28.36-17a3.2,3.2,0,0,1-1.08-4.3,3,3,0,0,1,3.53-1.4l31.15,10.47Z" transform="translate(-6.97 -5.03)"/><path class="cls-9" d="M1461.75,554.12l13.42-27.91a3.19,3.19,0,0,0-1.34-4.21,3,3,0,0,0-3.71.82l-19.15,24Z" transform="translate(-6.97 -5.03)"/><path class="cls-9" d="M1462.93,569.1l28.36-17a3.2,3.2,0,0,0,1.08-4.3,3,3,0,0,0-3.53-1.4l-31.13,10.47Z" transform="translate(-6.97 -5.03)"/><path class="cls-9" d="M1464.08,558.16v17a21.63,21.63,0,0,0-6-15,20,20,0,0,0-28.93,0,21.57,21.57,0,0,0-6,15v-17c0-11.7,9.15-21.18,20.45-21.18S1464.08,546.46,1464.08,558.16Z" transform="translate(-6.97 -5.03)"/><path class="cls-9" d="M1464.08,558.16v27.6c0,9.36-7.36,17-16.4,17h-4.06V586.08H1438l5.61-6.09V537h0C1454.92,537,1464.08,546.46,1464.08,558.16Z" transform="translate(-6.97 -5.03)"/><path class="cls-6" d="M1547.28,979.64c10.62-18.16,5-41.79-12.53-52.79s-40.36-5.18-51,13a39.62,39.62,0,0,0,0,39.81Z" transform="translate(-6.97 -5.03)"/><path class="cls-6" d="M1593.72,979.64V978.1c.35-16.71-12.44-30.55-28.57-30.91s-29.51,12.88-29.86,29.59q0,.66,0,1.32v1.54Z" transform="translate(-6.97 -5.03)"/><path class="cls-6" d="M1513.89,979.64c-1-18.49-16.25-32.65-34.11-31.63-16.48.94-29.64,14.57-30.55,31.63Z" transform="translate(-6.97 -5.03)"/><path class="cls-6" d="M351.18,930.89c10.62-18.16,5-41.8-12.53-52.79s-40.36-5.19-51,13a39.64,39.64,0,0,0,0,39.82Z" transform="translate(-6.97 -5.03)"/><path class="cls-6" d="M397.62,930.89v-1.54c.35-16.71-12.44-30.55-28.57-30.92S339.54,911.31,339.19,928c0,.44,0,.89,0,1.33v1.54Z" transform="translate(-6.97 -5.03)"/><path class="cls-6" d="M317.74,930.89c-1-18.49-16.26-32.65-34.12-31.63-16.48.94-29.63,14.56-30.54,31.63Z" transform="translate(-6.97 -5.03)"/><polygon class="cls-11" points="463.42 1054.44 1198.3 1054.44 1163.2 1012.65 1151.22 998.35 1101.29 938.94 1089.31 924.67 1014.57 835.67 1002.59 821.41 962.79 774.01 950.81 759.72 917.62 720.19 905.64 705.94 830.86 616.89 463.42 1054.44"/><polygon class="cls-12" points="830.86 616.89 830.86 616.89 684.56 1054.45 463.42 1054.45 830.86 616.89"/><path class="cls-13" d="M837.83,718.1a7.13,7.13,0,0,0,7.15,7.12h79.61l-12-14.25H845.06a7.12,7.12,0,0,0-7.22,7S837.83,718.07,837.83,718.1Z" transform="translate(-6.97 -5.03)"/><path class="cls-13" d="M1036.5,936.83a7.13,7.13,0,0,0,7.14,7.13h64.64l-12-14.26h-52.56a7.11,7.11,0,0,0-7.23,7S1036.5,936.79,1036.5,936.83Z" transform="translate(-6.97 -5.03)"/><path class="cls-13" d="M885.31,833.56a7.13,7.13,0,0,0,7.14,7.13h129.1l-12-14.26h-117a7.12,7.12,0,0,0-7.24,7Z" transform="translate(-6.97 -5.03)"/><path class="cls-13" d="M1036.5,1010.49a7.24,7.24,0,0,0,7.24,7.18h126.44l-12-14.29H1043.74a7.11,7.11,0,0,0-7.23,7Z" transform="translate(-6.97 -5.03)"/><path class="cls-13" d="M918.64,771.92a7.13,7.13,0,0,0,7.15,7.12h44l-12-14.3H925.87a7.13,7.13,0,0,0-7.22,7A.57.57,0,0,0,918.64,771.92Z" transform="translate(-6.97 -5.03)"/><rect class="cls-14" x="651.34" y="868.69" width="151.95" height="186.39"/><rect class="cls-15" x="672.62" y="906.09" width="109.36" height="148.99"/><path class="cls-16" d="M734.28,933.17c-15.64,14-43.07,13.36-43.07,36.4v90.53h86.14V969.57C777.35,943.86,750.89,946.53,734.28,933.17Z" transform="translate(-6.97 -5.03)"/><path class="cls-14" d="M815.11,792.87c-23.24-28.74-71.3-43.44-80.83-66.82-9.51,23.37-57.52,38.07-80.81,66.82-32.26,44.76,4.84,80.84,4.84,80.84h152S847.36,837.63,815.11,792.87Z" transform="translate(-6.97 -5.03)"/><path class="cls-15" d="M810.27,873.7h-152A67.86,67.86,0,0,1,642,844.21H781s32.8-32,9.82-72.93c9.12,6.44,17.69,13.44,24.27,21.57C847.36,837.61,810.27,873.7,810.27,873.7Z" transform="translate(-6.97 -5.03)"/><rect class="cls-15" x="586.01" y="916.28" width="65.33" height="138.8"/><rect class="cls-14" x="541.49" y="916.28" width="44.52" height="138.8"/><path class="cls-16" d="M625.65,947.55c-5.33,4.76-14.64,4.55-14.64,12.38v30.78h29.28V959.93C640.29,951.18,631.29,952.1,625.65,947.55Z" transform="translate(-6.97 -5.03)"/><path class="cls-16" d="M570.73,947.55c-4.06,4.76-11.14,4.55-11.14,12.38v30.78h22.26V959.93C581.85,951.18,575,952.1,570.73,947.55Z" transform="translate(-6.97 -5.03)"/><path class="cls-16" d="M570.73,1016.94c-4.06,4.78-11.14,4.55-11.14,12.38v30.78h22.26v-30.78C581.85,1020.58,575,1021.49,570.73,1016.94Z" transform="translate(-6.97 -5.03)"/><path class="cls-16" d="M625.65,1016.94c-5.33,4.78-14.64,4.55-14.64,12.38v30.78h29.28v-30.78C640.29,1020.58,631.29,1021.49,625.65,1016.94Z" transform="translate(-6.97 -5.03)"/><path class="cls-14" d="M647.61,876.25c-7.44-9.18-22.8-13.87-25.84-21.35-3,7.48-18.41,12.17-25.83,21.35-10.31,14.31,1.54,25.85,1.54,25.85H646S657.92,890.56,647.61,876.25Z" transform="translate(-6.97 -5.03)"/><rect class="cls-14" x="590.51" y="897.07" width="48.57" height="19.2"/><path class="cls-14" d="M587.52,892c-4.82-6-14.81-9-16.83-13.89-2,4.85-12,7.92-16.84,13.89-6.7,9.31,1,16.81,1,16.81h31.61S594.24,901.31,587.52,892Z" transform="translate(-6.97 -5.03)"/><rect class="cls-15" x="547.94" y="903.78" width="31.59" height="12.49"/><rect class="cls-15" x="803.28" y="916.28" width="65.33" height="138.8"/><rect class="cls-14" x="868.63" y="916.28" width="44.52" height="138.8"/><path class="cls-16" d="M842.93,947.55c5.31,4.76,14.64,4.55,14.64,12.38v30.78H828.28V959.93C828.28,951.18,837.27,952.1,842.93,947.55Z" transform="translate(-6.97 -5.03)"/><path class="cls-16" d="M897.85,947.55c4,4.76,11.13,4.55,11.13,12.38v30.78H886.73V959.93C886.73,951.18,893.56,952.1,897.85,947.55Z" transform="translate(-6.97 -5.03)"/><path class="cls-16" d="M897.85,1016.94c4,4.78,11.13,4.55,11.13,12.38v30.78H886.73v-30.78C886.73,1020.58,893.56,1021.49,897.85,1016.94Z" transform="translate(-6.97 -5.03)"/><path class="cls-16" d="M842.93,1016.94c5.31,4.78,14.64,4.55,14.64,12.38v30.78H828.28v-30.78C828.28,1020.58,837.27,1021.49,842.93,1016.94Z" transform="translate(-6.97 -5.03)"/><path class="cls-14" d="M821,876.25c7.42-9.18,22.78-13.87,25.83-21.35,3,7.48,18.41,12.17,25.83,21.35,10.31,14.31-1.55,25.85-1.55,25.85H822.51S810.66,890.56,821,876.25Z" transform="translate(-6.97 -5.03)"/><rect class="cls-14" x="815.54" y="897.09" width="48.57" height="19.2"/><path class="cls-14" d="M881,892c4.83-6,14.83-9,16.84-13.89,2,4.85,12,7.92,16.84,13.89,6.7,9.31-1,16.81-1,16.81H882.05S874.34,901.31,881,892Z" transform="translate(-6.97 -5.03)"/><rect class="cls-15" x="875.08" y="903.8" width="31.59" height="12.49"/><path class="cls-14" d="M520,747.63c-4.75-5.81-14.62-8.9-16.57-13.7-2,4.8-11.81,7.82-16.58,13.7-6.62,9.18,1,16.59,1,16.59H519S526.64,756.81,520,747.63Z" transform="translate(-6.97 -5.03)"/><rect class="cls-14" x="480.88" y="759.2" width="31.17" height="12.32"/><polygon class="cls-15" points="523.24 1055.08 471.2 1055.08 480.59 771.52 511.97 771.52 523.24 1055.08"/><path class="cls-14" d="M533.43,949.38H470.29a5.09,5.09,0,0,1-5-5.18c0-.1,0-.21,0-.31h0a5,5,0,0,1,5-4.82h63.14a5.05,5.05,0,0,1,5,4.82h0a5.09,5.09,0,0,1-4.65,5.48Z" transform="translate(-6.97 -5.03)"/><path class="cls-14" d="M526.78,857.47H476.94a3.67,3.67,0,0,1-3.59-3.74v-.2h0a3.65,3.65,0,0,1,3.59-3.5h49.84a3.65,3.65,0,0,1,3.57,3.5h0a3.67,3.67,0,0,1-3.37,3.93Z" transform="translate(-6.97 -5.03)"/><path class="cls-14" d="M521.35,792.06H482.3c-2.48,0-4.47-1.6-4.39-3.52h0c.09-1.83,2-3.28,4.39-3.28h39.05c2.37,0,4.32,1.45,4.39,3.28h0C525.84,790.46,523.84,792.06,521.35,792.06Z" transform="translate(-6.97 -5.03)"/><path class="cls-14" d="M984.93,747.63c-4.75-5.81-14.62-8.9-16.57-13.7-2,4.8-11.81,7.82-16.58,13.7-6.62,9.18,1,16.59,1,16.59h31.16S991.55,756.81,984.93,747.63Z" transform="translate(-6.97 -5.03)"/><rect class="cls-14" x="945.8" y="759.2" width="31.17" height="12.32"/><polygon class="cls-15" points="988.16 1055.08 936.12 1055.08 945.51 771.52 976.89 771.52 988.16 1055.08"/><path class="cls-14" d="M998.34,949.38H935.21a5.09,5.09,0,0,1-5-5.18c0-.1,0-.21,0-.31h0a5,5,0,0,1,5-4.82h63.13a5.05,5.05,0,0,1,5,4.82h0a5.09,5.09,0,0,1-4.65,5.48Z" transform="translate(-6.97 -5.03)"/><path class="cls-14" d="M991.64,857.47H941.86a3.67,3.67,0,0,1-3.59-3.74v-.2h0a3.65,3.65,0,0,1,3.59-3.5h49.78a3.66,3.66,0,0,1,3.58,3.5h0a3.68,3.68,0,0,1-3.38,3.93Z" transform="translate(-6.97 -5.03)"/><path class="cls-14" d="M986.26,792.06h-39c-2.48,0-4.47-1.6-4.39-3.52h0c.08-1.83,2-3.28,4.39-3.28h39c2.38,0,4.33,1.45,4.4,3.28h0C990.75,790.46,988.76,792.06,986.26,792.06Z" transform="translate(-6.97 -5.03)"/><polygon class="cls-17" points="1139.73 597.33 1137.39 597.33 1084.36 597.33 1084.36 700.71 1090.21 708.79 1137.39 708.79 1139.73 708.79 1186.92 708.79 1192.78 700.71 1192.78 597.33 1139.73 597.33"/><rect class="cls-18" x="1095.58" y="708.79" width="85.96" height="156.86"/><rect class="cls-17" x="1109.41" y="708.79" width="58.29" height="156.86"/><ellipse class="cls-7" cx="1138.61" cy="653.13" rx="40.64" ry="42.08"/><ellipse class="cls-19" cx="1138.55" cy="653.05" rx="32.16" ry="33.3"/><path class="cls-7" d="M1127.05,723.14h4.66a1.86,1.86,0,0,1,1.82,1.89V748.9a1.85,1.85,0,0,1-1.82,1.88h-4.66a1.85,1.85,0,0,1-1.82-1.88V725A1.86,1.86,0,0,1,1127.05,723.14Z" transform="translate(-6.97 -5.03)"/><path class="cls-7" d="M1143.21,723.14h4.66a1.86,1.86,0,0,1,1.82,1.89V748.9a1.85,1.85,0,0,1-1.82,1.88h-4.66a1.85,1.85,0,0,1-1.82-1.88V725A1.86,1.86,0,0,1,1143.21,723.14Z" transform="translate(-6.97 -5.03)"/><path class="cls-7" d="M1159.37,723.14H1164a1.86,1.86,0,0,1,1.82,1.89V748.9a1.85,1.85,0,0,1-1.82,1.88h-4.66a1.85,1.85,0,0,1-1.82-1.88V725A1.86,1.86,0,0,1,1159.37,723.14Z" transform="translate(-6.97 -5.03)"/><path class="cls-7" d="M1127.05,760h4.66a1.86,1.86,0,0,1,1.82,1.89v23.87a1.86,1.86,0,0,1-1.82,1.89h-4.66a1.86,1.86,0,0,1-1.82-1.89V761.88A1.86,1.86,0,0,1,1127.05,760Z" transform="translate(-6.97 -5.03)"/><path class="cls-7" d="M1143.21,760h4.66a1.86,1.86,0,0,1,1.82,1.89v23.87a1.86,1.86,0,0,1-1.82,1.89h-4.66a1.86,1.86,0,0,1-1.82-1.89V761.88A1.86,1.86,0,0,1,1143.21,760Z" transform="translate(-6.97 -5.03)"/><path class="cls-7" d="M1159.37,760H1164a1.86,1.86,0,0,1,1.82,1.89v23.87a1.86,1.86,0,0,1-1.82,1.89h-4.66a1.86,1.86,0,0,1-1.82-1.89V761.88A1.86,1.86,0,0,1,1159.37,760Z" transform="translate(-6.97 -5.03)"/><path class="cls-7" d="M1127.05,796.85h4.66a1.86,1.86,0,0,1,1.82,1.89v23.87a1.85,1.85,0,0,1-1.82,1.88h-4.66a1.85,1.85,0,0,1-1.82-1.88V798.74A1.85,1.85,0,0,1,1127.05,796.85Z" transform="translate(-6.97 -5.03)"/><path class="cls-7" d="M1143.21,796.85h4.66a1.85,1.85,0,0,1,1.82,1.89v23.87a1.85,1.85,0,0,1-1.82,1.88h-4.66a1.85,1.85,0,0,1-1.82-1.88V798.74A1.85,1.85,0,0,1,1143.21,796.85Z" transform="translate(-6.97 -5.03)"/><path class="cls-7" d="M1159.37,796.85H1164a1.85,1.85,0,0,1,1.82,1.89v23.87a1.85,1.85,0,0,1-1.82,1.88h-4.66a1.85,1.85,0,0,1-1.82-1.88V798.74A1.86,1.86,0,0,1,1159.37,796.85Z" transform="translate(-6.97 -5.03)"/><path class="cls-7" d="M1127.05,833.7h4.66a1.86,1.86,0,0,1,1.82,1.89v23.87a1.86,1.86,0,0,1-1.82,1.89h-4.66a1.86,1.86,0,0,1-1.82-1.89V835.59A1.86,1.86,0,0,1,1127.05,833.7Z" transform="translate(-6.97 -5.03)"/><path class="cls-7" d="M1143.21,833.7h4.66a1.86,1.86,0,0,1,1.82,1.89v23.87a1.86,1.86,0,0,1-1.82,1.89h-4.66a1.86,1.86,0,0,1-1.82-1.89V835.59A1.86,1.86,0,0,1,1143.21,833.7Z" transform="translate(-6.97 -5.03)"/><path class="cls-7" d="M1159.37,833.7H1164a1.86,1.86,0,0,1,1.82,1.89v23.87a1.86,1.86,0,0,1-1.82,1.89h-4.66a1.86,1.86,0,0,1-1.82-1.89V835.59A1.86,1.86,0,0,1,1159.37,833.7Z" transform="translate(-6.97 -5.03)"/><path class="cls-17" d="M1091.33,602.35V576a3.59,3.59,0,0,1,3.51-3.66h0a3.6,3.6,0,0,1,3.44,2.76l6.61,27.21Z" transform="translate(-6.97 -5.03)"/><path class="cls-17" d="M1199.75,602.35V576a3.6,3.6,0,0,0-3.54-3.66h0a3.56,3.56,0,0,0-3.42,2.76l-6.63,27.21Z" transform="translate(-6.97 -5.03)"/><polygon class="cls-20" points="1165.8 519.71 1159.01 519.71 1118.29 519.71 1111.5 519.71 1111.5 540.5 1097.92 561.27 1179.36 561.27 1165.8 540.5 1165.8 519.71"/><polygon class="cls-17" points="1097.92 597.33 1138.65 597.33 1179.36 597.33 1179.36 561.27 1097.92 561.27 1097.92 597.33"/><polygon class="cls-20" points="1138.65 392 1118.29 486.11 1159.01 486.11 1138.65 392"/><rect class="cls-17" x="1118.28" y="486.11" width="40.73" height="33.62"/><path class="cls-8" d="M1036.27,859.15h-30.11a14.27,14.27,0,0,1-14-14.52,15,15,0,0,1,.28-2.91L1004,782.55c3.18-16.25,16.31-28.39,32.26-29.83V352.55h-21c-7.66,537.26-181.74,682.38-181.74,682.38v21.53H938.66v-27.07c0-56.27,43.2-102.37,97.52-104.1Z" transform="translate(-6.97 -5.03)"/><path class="cls-8" d="M938.44,1033h-106a13.4,13.4,0,0,0-13.15,13.63h0a13.38,13.38,0,0,0,13.14,13.61H938.44a13.39,13.39,0,0,0,13.16-13.6h0A13.4,13.4,0,0,0,938.44,1033Z" transform="translate(-6.97 -5.03)"/><path class="cls-21" d="M1132.34,887.8c-2.26-5.46-4.56-11.08-6.82-16.89a973.79,973.79,0,0,1-37.3-118.32c-1.41-5.6-2.81-11.28-4.21-17.1-22.87-97.07-40-222.52-42.3-382.94H993.56c-2.3,160.42-19.43,285.87-42.3,382.94q-2.1,8.71-4.21,17.1a975.41,975.41,0,0,1-37.27,118.32c-2.26,5.81-4.56,11.43-6.82,16.89-45.53,109.1-91.19,147.11-91.19,147.11v21.53H917v-27c-.66-57.53,43.86-104.72,99.42-105.4s101.15,45.41,101.8,103c0,.82,0,1.64,0,2.45v27h105.22v-21.53S1177.86,996.9,1132.34,887.8Zm-81.5-28.66h-66.4a14.28,14.28,0,0,1-14-14.52,15,15,0,0,1,.28-2.91l11.55-59.16c4-20.24,23-33.32,42.59-29.21A36.77,36.77,0,0,1,1053,782.55l11.55,59.16a14.53,14.53,0,0,1-10.94,17.14A13.88,13.88,0,0,1,1050.84,859.14Z" transform="translate(-6.97 -5.03)"/><path class="cls-7" d="M1224.61,1033h-106a13.38,13.38,0,0,0-13.14,13.61v0h0a13.36,13.36,0,0,0,13.11,13.61h106.08a13.37,13.37,0,0,0,13.15-13.58v0h0a13.4,13.4,0,0,0-13.14-13.63Z" transform="translate(-6.97 -5.03)"/><path class="cls-7" d="M916.79,1033H810.67a13.38,13.38,0,0,0-13.14,13.61v0h0a13.37,13.37,0,0,0,13.12,13.61H916.79a13.37,13.37,0,0,0,13.15-13.58v0h0A13.39,13.39,0,0,0,916.81,1033Z" transform="translate(-6.97 -5.03)"/><path class="cls-8" d="M1132.34,887.8a7.17,7.17,0,0,1-1.9.23H904.84a7.17,7.17,0,0,1-1.9-.23c2.26-5.46,4.56-11.08,6.82-16.89h215.76C1127.78,876.72,1130,882.34,1132.34,887.8Z" transform="translate(-6.97 -5.03)"/><path class="cls-8" d="M1088.22,752.59H947.07c1.4-5.6,2.8-11.28,4.21-17.1H1084C1085.42,741.31,1086.79,747,1088.22,752.59Z" transform="translate(-6.97 -5.03)"/><path class="cls-21" d="M1000.62,308h34a7.94,7.94,0,0,1,7.8,8.08v24.42H992.83V316A8,8,0,0,1,1000.62,308Z" transform="translate(-6.97 -5.03)"/><path class="cls-7" d="M1039.53,362.38H995.75a13.38,13.38,0,0,1-13.13-13.61h0a13.37,13.37,0,0,1,13.13-13.6h43.78a13.37,13.37,0,0,1,13.14,13.6h0A13.39,13.39,0,0,1,1039.53,362.38Z" transform="translate(-6.97 -5.03)"/><path class="cls-7" d="M1130.44,876.24H904.84a8.41,8.41,0,0,1-8.26-8.56h0a8.4,8.4,0,0,1,8.26-8.55h225.6a8.41,8.41,0,0,1,8.27,8.55h0a8.42,8.42,0,0,1-8.27,8.56Z" transform="translate(-6.97 -5.03)"/><path class="cls-7" d="M1090.76,741.87H944.51a8.42,8.42,0,0,1-8.26-8.55h0a8.41,8.41,0,0,1,8.26-8.55h146.25a8.41,8.41,0,0,1,8.26,8.55h0A8.42,8.42,0,0,1,1090.76,741.87Z" transform="translate(-6.97 -5.03)"/><path class="cls-8" d="M978.52,702.28h0a5.7,5.7,0,0,1,0-7.87h0l14-14.53a5.25,5.25,0,0,1,7.6,0h0a5.7,5.7,0,0,1,0,7.87h0l-14,14.53a5.23,5.23,0,0,1-7.59,0Z" transform="translate(-6.97 -5.03)"/><path class="cls-8" d="M978.52,679.88h0a5.25,5.25,0,0,1,7.6,0h0l14,14.53a5.69,5.69,0,0,1,0,7.86h0a5.24,5.24,0,0,1-7.6,0h0l-14-14.53a5.7,5.7,0,0,1,0-7.87Z" transform="translate(-6.97 -5.03)"/><path class="cls-22" d="M1031.17,1060.06H1444.3a14.15,14.15,0,0,0,13.88-14.4H1017.27a14.16,14.16,0,0,0,13.9,14.4Z" transform="translate(-6.97 -5.03)"/><path class="cls-23" d="M1444.3,1031.25H1031.17a14.16,14.16,0,0,0-13.9,14.4h441a14.16,14.16,0,0,0-13.9-14.4Z" transform="translate(-6.97 -5.03)"/><path class="cls-22" d="M1043.9,1031.25h387.77a14.13,14.13,0,0,0,13.9-14.36v0H1030A14.16,14.16,0,0,0,1043.9,1031.25Z" transform="translate(-6.97 -5.03)"/><path class="cls-23" d="M1431.67,1002.49H1043.9a14.16,14.16,0,0,0-13.91,14.38h415.53A14.15,14.15,0,0,0,1431.67,1002.49Z" transform="translate(-6.97 -5.03)"/><path class="cls-22" d="M1064.66,1002.49h346.2a14.16,14.16,0,0,0,13.91-14.4h-374a14.15,14.15,0,0,0,13.9,14.4Z" transform="translate(-6.97 -5.03)"/><path class="cls-23" d="M1410.86,973.7h-346.2a14.14,14.14,0,0,0-13.9,14.37v0h374a14.16,14.16,0,0,0-13.91-14.39Z" transform="translate(-6.97 -5.03)"/><path class="cls-22" d="M1084.69,973.7h306.14a14.16,14.16,0,0,0,13.9-14.4h-333.9A14.16,14.16,0,0,0,1084.69,973.7Z" transform="translate(-6.97 -5.03)"/><path class="cls-23" d="M1390.83,944.91H1084.69a14.15,14.15,0,0,0-13.9,14.39h333.9A14.15,14.15,0,0,0,1390.83,944.91Z" transform="translate(-6.97 -5.03)"/><path class="cls-22" d="M1103.48,944.91H1372a14.16,14.16,0,0,0,13.9-14.4H1089.58a14.16,14.16,0,0,0,13.9,14.4Z" transform="translate(-6.97 -5.03)"/><path class="cls-23" d="M1372,916.11H1103.48a14.16,14.16,0,0,0-13.9,14.4h296.35a14.16,14.16,0,0,0-13.9-14.4Z" transform="translate(-6.97 -5.03)"/><path class="cls-22" d="M1119.26,916.11h237a14.14,14.14,0,0,0,13.89-14.38H1105.36A14.15,14.15,0,0,0,1119.26,916.11Z" transform="translate(-6.97 -5.03)"/><path class="cls-23" d="M1356.26,887.32h-237a14.16,14.16,0,0,0-13.9,14.4h264.79A14.16,14.16,0,0,0,1356.26,887.32Z" transform="translate(-6.97 -5.03)"/><path class="cls-22" d="M1136,887.32h203.43a14.15,14.15,0,0,0,13.9-14.38H1122.11A14.15,14.15,0,0,0,1136,887.32Z" transform="translate(-6.97 -5.03)"/><path class="cls-23" d="M1339.51,858.54H1136.08a14.16,14.16,0,0,0-13.9,14.4h231.3a14.16,14.16,0,0,0-13.9-14.4Z" transform="translate(-6.97 -5.03)"/><path class="cls-22" d="M1154.48,858.54H1321a14.16,14.16,0,0,0,13.91-14.39H1140.57a14.16,14.16,0,0,0,13.91,14.39Z" transform="translate(-6.97 -5.03)"/><path class="cls-23" d="M1321,829.75H1154.48a14.16,14.16,0,0,0-13.91,14.4h194.37a14.16,14.16,0,0,0-13.91-14.4Z" transform="translate(-6.97 -5.03)"/><path class="cls-22" d="M1174.05,829.75h127.41a14.16,14.16,0,0,0,13.91-14.39H1160.16A14.15,14.15,0,0,0,1174.05,829.75Z" transform="translate(-6.97 -5.03)"/><path class="cls-23" d="M1301.46,801H1174.05a14.15,14.15,0,0,0-13.89,14.4h155.21a14.16,14.16,0,0,0-13.91-14.4Z" transform="translate(-6.97 -5.03)"/><path class="cls-22" d="M1189.35,801h96.81a14.14,14.14,0,0,0,13.9-14.37v0h-124.6a14.15,14.15,0,0,0,13.88,14.4Z" transform="translate(-6.97 -5.03)"/><path class="cls-23" d="M1286.16,772.17h-96.81a14.16,14.16,0,0,0-13.89,14.39h124.6A14.15,14.15,0,0,0,1286.16,772.17Z" transform="translate(-6.97 -5.03)"/><polygon class="cls-24" points="1298.61 1040.65 1296.35 1026.24 1294.12 1011.85 1291.89 997.47 1289.63 983.07 1287.4 968.66 1285.17 954.29 1282.91 939.88 1280.68 925.47 1278.45 911.1 1276.19 896.69 1273.96 882.3 1271.73 867.91 1269.47 853.52 1267.24 839.11 1264.98 824.73 1262.75 810.33 1260.52 795.93 1258.26 781.55 1256.03 767.14 1205.54 767.14 1203.31 781.55 1201.05 795.93 1198.82 810.33 1196.59 824.73 1194.33 839.11 1192.1 853.52 1189.84 867.91 1187.61 882.3 1185.38 896.69 1183.12 911.1 1180.89 925.47 1178.66 939.88 1176.4 954.29 1174.17 968.66 1171.94 983.07 1169.68 997.47 1167.45 1011.85 1165.21 1026.24 1162.95 1040.65 1160.72 1055.04 1300.84 1055.04 1298.61 1040.65"/><polygon class="cls-22" points="1293.09 1055.04 1168.49 1055.04 1170.72 1040.65 1290.85 1040.65 1293.09 1055.04"/><polygon class="cls-23" points="1290.85 1040.65 1170.72 1040.65 1172.98 1026.24 1288.6 1026.24 1290.85 1040.65"/><polygon class="cls-22" points="1288.6 1026.24 1172.98 1026.24 1175.21 1011.85 1286.37 1011.85 1288.6 1026.24"/><polygon class="cls-23" points="1286.37 1011.85 1175.21 1011.85 1177.44 997.47 1284.13 997.47 1286.37 1011.85"/><polygon class="cls-22" points="1284.13 997.47 1177.44 997.47 1179.7 983.07 1281.88 983.07 1284.13 997.47"/><polygon class="cls-23" points="1281.88 983.07 1179.7 983.07 1181.93 968.66 1279.64 968.66 1281.88 983.07"/><polygon class="cls-22" points="1279.64 968.66 1181.93 968.66 1184.16 954.29 1277.41 954.29 1279.64 968.66"/><polygon class="cls-23" points="1277.41 954.29 1184.16 954.29 1186.42 939.88 1275.15 939.88 1277.41 954.29"/><polygon class="cls-22" points="1275.15 939.88 1186.42 939.88 1188.65 925.47 1272.92 925.47 1275.15 939.88"/><polygon class="cls-23" points="1272.92 925.47 1188.65 925.47 1190.88 911.1 1270.68 911.1 1272.92 925.47"/><polygon class="cls-22" points="1270.68 911.1 1190.88 911.1 1193.14 896.69 1268.43 896.69 1270.68 911.1"/><polygon class="cls-23" points="1268.43 896.69 1193.14 896.69 1195.37 882.3 1266.19 882.3 1268.43 896.69"/><polygon class="cls-22" points="1266.19 882.3 1195.37 882.3 1197.6 867.91 1263.96 867.91 1266.19 882.3"/><polygon class="cls-23" points="1263.96 867.91 1197.6 867.91 1199.86 853.52 1261.71 853.52 1263.96 867.91"/><polygon class="cls-22" points="1261.71 853.52 1199.86 853.52 1202.09 839.11 1259.47 839.11 1261.71 853.52"/><polygon class="cls-23" points="1259.47 839.11 1202.09 839.11 1204.35 824.73 1257.23 824.73 1259.47 839.11"/><polygon class="cls-22" points="1257.23 824.73 1204.35 824.73 1206.58 810.33 1254.98 810.33 1257.23 824.73"/><polygon class="cls-23" points="1254.98 810.33 1206.58 810.33 1208.82 795.93 1252.75 795.93 1254.98 810.33"/><polygon class="cls-22" points="1252.75 795.93 1208.82 795.93 1211.07 781.55 1250.49 781.55 1252.75 795.93"/><polygon class="cls-23" points="1250.49 781.55 1211.07 781.55 1213.31 767.14 1248.26 767.14 1250.49 781.55"/><path class="cls-23" d="M1195.88,701.5h83.75a7.14,7.14,0,0,1,7,7.26v63.45h-97.77V708.76A7.13,7.13,0,0,1,1195.88,701.5Z" transform="translate(-6.97 -5.03)"/><path class="cls-22" d="M1237.76,726.45h0c-10.17,0-18.41,8.54-18.41,19.06v26.66h36.83V745.51c0-10.52-8.25-19.06-18.41-19.06Z" transform="translate(-6.97 -5.03)"/><rect class="cls-10" x="1378.55" y="899.8" width="119.94" height="127.01"/><path class="cls-9" d="M1489.19,952.9v78.93h-14.87V952.9a7.44,7.44,0,1,1,14.87,0Z" transform="translate(-6.97 -5.03)"/><path class="cls-9" d="M1464.08,965.4v66.43h-14.89V965.4a7.46,7.46,0,1,1,14.89-.67C1464.09,965,1464.09,965.18,1464.08,965.4Z" transform="translate(-6.97 -5.03)"/><path class="cls-9" d="M1436.17,979.35v52.48H1421.3V979.35a7.44,7.44,0,1,1,14.87,0Z" transform="translate(-6.97 -5.03)"/><path class="cls-9" d="M1408.73,984.67v47.16h-14.87V984.67a7.6,7.6,0,0,1,7.44-7.72h0a7.57,7.57,0,0,1,7.43,7.7Z" transform="translate(-6.97 -5.03)"/><path class="cls-10" d="M1375.2,1031.83h140.59a5.82,5.82,0,0,1,5.71,5.92v15.13a5.82,5.82,0,0,1-5.71,5.92H1375.2a5.82,5.82,0,0,1-5.71-5.92v-15.13A5.82,5.82,0,0,1,1375.2,1031.83Z" transform="translate(-6.97 -5.03)"/><path class="cls-10" d="M1560.74,688.42l-26-11.53a8.16,8.16,0,0,0-10.35,3.37l-19,32v69s24.63-20.22,24.94-21.79,19.83-40.11,19.83-41.07S1560.74,688.42,1560.74,688.42Z" transform="translate(-6.97 -5.03)"/><path class="cls-9" d="M1505.46,781.2l55.28-92.78,2.13,1.45a6.43,6.43,0,0,1,1.88,8.36l-7.11,12.9,6,4.17a15.59,15.59,0,0,1,4.21,20.91l-3.46,5.6a14.47,14.47,0,0,1-20.36,4.62h0s9,61.6-38.57,74.45Z" transform="translate(-6.97 -5.03)"/><path class="cls-10" d="M1512,681V910.56a6.19,6.19,0,0,1-3.31,5.51L1385.2,979.31a5.83,5.83,0,0,1-7.93-2.72,6.25,6.25,0,0,1-.62-2.79V656.71a28.32,28.32,0,0,0-1.83-9.94l-14.43-38a19.82,19.82,0,0,1,3.49-20l23.85-27.49a8,8,0,0,1,11.53-.69,8.45,8.45,0,0,1,2.3,3.6l.27.84,8.7,26.77,1.19,3.69,2.57,7.93a8.07,8.07,0,0,0,10.32,5.26,8.42,8.42,0,0,0,5.52-7.94V593.3h26v13.07a9.82,9.82,0,0,0,3.57,7.63l17.77,14.53,16.11,13.2A50.78,50.78,0,0,1,1512,681Z" transform="translate(-6.97 -5.03)"/><path class="cls-9" d="M1512,681V910.56a6.19,6.19,0,0,1-3.31,5.51L1385.2,979.31a5.83,5.83,0,0,1-7.93-2.72,6.25,6.25,0,0,1-.62-2.79v-3.73l66.09-35.36a7.74,7.74,0,0,0,4-6.86,7.64,7.64,0,0,0-2.31-5.53,7.94,7.94,0,0,1-.14-11,6.52,6.52,0,0,1,1-.92l24.24-17.75A19.43,19.43,0,0,0,1477.5,877V628.54l16.11,13.21A50.77,50.77,0,0,1,1512,681Z" transform="translate(-6.97 -5.03)"/><path class="cls-9" d="M1458.11,693.75a5.18,5.18,0,0,1-.25,1.66l-81.19,249V865.24l71.75-173.56a5,5,0,0,1,6.63-2.76,5.23,5.23,0,0,1,3.06,4.83Z" transform="translate(-6.97 -5.03)"/><rect class="cls-25" x="484.42" y="871.77" width="12.37" height="183.23"/><rect class="cls-25" x="606.63" y="871.77" width="12.37" height="183.23"/><path class="cls-17" d="M427.41,850.5H688.67a2.11,2.11,0,0,1,2.08,2.15v8.13a2.11,2.11,0,0,1-2.08,2.15H427.41a2.11,2.11,0,0,1-2.08-2.15v-8.13A2.11,2.11,0,0,1,427.41,850.5Z" transform="translate(-6.97 -5.03)"/><path class="cls-25" d="M673,879H444a7.91,7.91,0,0,1-7.76-8h0a7.91,7.91,0,0,1,7.76-8H673a7.9,7.9,0,0,1,7.76,8h0a7.9,7.9,0,0,1-7.76,8Z" transform="translate(-6.97 -5.03)"/><path class="cls-17" d="M436.34,871.65A7.85,7.85,0,0,0,444,879H673a7.85,7.85,0,0,0,7.69-7.35Z" transform="translate(-6.97 -5.03)"/><path class="cls-25" d="M673,912.53H444a7.91,7.91,0,0,1-7.76-8h0a7.91,7.91,0,0,1,7.76-8H673a7.9,7.9,0,0,1,7.76,8h0a7.9,7.9,0,0,1-7.76,8Z" transform="translate(-6.97 -5.03)"/><path class="cls-17" d="M436.34,905.18a7.85,7.85,0,0,0,7.69,7.35H673a7.85,7.85,0,0,0,7.69-7.35Z" transform="translate(-6.97 -5.03)"/><path class="cls-20" d="M406.12,834.52l4,8.71a9.91,9.91,0,0,0,7,5.7,732.57,732.57,0,0,0,284.79,0,9.91,9.91,0,0,0,7-5.7l4-8.71a2.06,2.06,0,0,0-.86-2.74,1.92,1.92,0,0,0-1.31-.17,721,721,0,0,1-302.64,0,2,2,0,0,0-2.19,1.77A2.22,2.22,0,0,0,406.12,834.52Z" transform="translate(-6.97 -5.03)"/><polygon class="cls-20" points="492.49 938.46 464.31 938.46 464.31 935.47 478.25 933.82 492.49 935.47 492.49 938.46"/><path class="cls-25" d="M499.47,943.79v-.31H471.29v.31a5.37,5.37,0,0,0,2.81,4.73h0a5.34,5.34,0,0,1,2.8,4.72v55.5a12.43,12.43,0,0,1-2.8,7.84h0a12.49,12.49,0,0,0-2.81,7.86V1060h28.18v-35.58a12.48,12.48,0,0,0-2.8-7.86h0a12.44,12.44,0,0,1-2.81-7.84v-55.5a5.35,5.35,0,0,1,2.81-4.72h0A5.38,5.38,0,0,0,499.47,943.79Z" transform="translate(-6.97 -5.03)"/><path class="cls-17" d="M496.71,948.52a5.39,5.39,0,0,0,2.81-4.73v-.31h-14V1060h14v-35.58a12.55,12.55,0,0,0-2.81-7.86,12.49,12.49,0,0,1-2.81-7.84v-55.5A5.35,5.35,0,0,1,496.71,948.52Z" transform="translate(-6.97 -5.03)"/><polygon class="cls-20" points="610.92 938.46 639.09 938.46 639.09 935.47 625.16 933.82 610.92 935.47 610.92 938.46"/><path class="cls-25" d="M618,943.79v-.31h28v.31a5.33,5.33,0,0,1-2.8,4.73h0a5.35,5.35,0,0,0-2.81,4.72v55.5a12.49,12.49,0,0,0,2.81,7.84h0a12.48,12.48,0,0,1,2.8,7.86V1060H618v-35.58a12.48,12.48,0,0,1,2.8-7.86h0a12.44,12.44,0,0,0,2.81-7.84v-55.5a5.35,5.35,0,0,0-2.81-4.72h0A5.38,5.38,0,0,1,618,943.79Z" transform="translate(-6.97 -5.03)"/><path class="cls-17" d="M631.31,943.48H618v.31a5.38,5.38,0,0,0,2.8,4.73,5.35,5.35,0,0,1,2.81,4.72v55.5a12.44,12.44,0,0,1-2.81,7.84,12.48,12.48,0,0,0-2.8,7.86V1060h13.41Z" transform="translate(-6.97 -5.03)"/><path class="cls-26" d="M500.32,1100c43.49,0,43.49,22.87,87,22.87S630.79,1100,674.35,1100s43.49,22.87,87,22.87,43.49-22.87,87-22.87,43.5,22.87,87,22.87,43.49-22.87,87-22.87,43.49,22.87,87.05,22.87,43.49-22.87,87-22.87,43.49,22.87,87,22.87,43.5-22.87,87-22.87,43.49,22.87,87.06,22.87,43.49-22.87,87-22.87v-18.89H500.32Z" transform="translate(-6.97 -5.03)"/><path class="cls-27" d="M1579.78,1077.74v1.6a18.66,18.66,0,0,1-18.24,17.43H473.88c-10.15,0-18.38-8.52-18.38-19a19.36,19.36,0,0,1,5.38-13.45,18.16,18.16,0,0,1,5.47-3.91,17.59,17.59,0,0,1,7.53-1.67H1561.4C1571.55,1058.71,1579.78,1067.23,1579.78,1077.74Z" transform="translate(-6.97 -5.03)"/><path class="cls-28" d="M1579.78,1077.74v1.6a17.9,17.9,0,0,1-7.54,1.67H484.69c-10.15,0-18.39-8.52-18.4-19,0-.54,0-1.07.09-1.6a17.53,17.53,0,0,1,7.53-1.67H1561.43C1571.57,1058.73,1579.78,1067.24,1579.78,1077.74Z" transform="translate(-6.97 -5.03)"/></g></svg>